<svg id="Layer_1" data-name="Layer 1" xmlns="http://www.w3.org/2000/svg" xmlns:xlink="http://www.w3.org/1999/xlink" viewBox="0 0 40 40">
  <defs>
    <style>
      .cls-1, .cls-2, .cls-3 {
        fill: none;
      }

      .cls-2, .cls-9 {
        fill-rule: evenodd;
      }

      .cls-3, .cls-5 {
        clip-rule: evenodd;
      }

      .cls-4 {
        fill: #ff6178;
      }

      .cls-6 {
        clip-path: url(#clip-path);
      }

      .cls-7 {
        clip-path: url(#clip-path-2);
      }

      .cls-8 {
        clip-path: url(#clip-path-3);
      }

      .cls-10 {
        clip-path: url(#clip-path-4);
      }

      .cls-11 {
        clip-path: url(#clip-path-5);
      }

      .cls-12 {
        clip-path: url(#clip-path-8);
      }

      .cls-13 {
        clip-path: url(#clip-path-9);
      }

      .cls-14 {
        clip-path: url(#clip-path-10);
      }

      .cls-15 {
        clip-path: url(#clip-path-11);
      }

      .cls-16 {
        fill: #666;
      }
    </style>
    <clipPath id="clip-path">
      <rect class="cls-1" x="-34.75" y="118.33" width="52" height="52"/>
    </clipPath>
    <clipPath id="clip-path-2">
      <polygon class="cls-3" points="-8.75 145.7 -1.94 152.51 -0.57 151.15 -7.39 144.33 -0.57 137.52 -1.94 136.16 -8.75 142.97 -15.56 136.16 -16.93 137.52 -10.11 144.33 -16.93 151.15 -15.56 152.51 -8.75 145.7"/>
    </clipPath>
    <clipPath id="clip-path-3">
      <rect class="cls-4" x="45.25" y="118.33" width="52" height="52"/>
    </clipPath>
    <clipPath id="clip-path-4">
      <polygon class="cls-5" points="71.25 145.7 78.06 152.51 79.43 151.15 72.61 144.33 79.43 137.52 78.06 136.16 71.25 142.97 64.44 136.16 63.07 137.52 69.89 144.33 63.07 151.15 64.44 152.51 71.25 145.7"/>
    </clipPath>
    <clipPath id="clip-path-5">
      <polygon class="cls-3" points="50.23 79.8 57.04 86.62 58.41 85.25 51.59 78.44 58.41 71.63 57.04 70.27 50.23 77.08 43.42 70.27 42.05 71.63 48.87 78.44 42.05 85.25 43.42 86.62 50.23 79.8"/>
    </clipPath>
    <clipPath id="clip-path-8">
      <polygon class="cls-3" points="71.13 145.74 77.94 152.55 79.3 151.19 72.49 144.38 79.3 137.56 77.94 136.2 71.13 143.01 64.31 136.2 62.95 137.56 69.76 144.38 62.95 151.19 64.31 152.55 71.13 145.74"/>
    </clipPath>
    <clipPath id="clip-path-9">
      <polygon class="cls-3" points="-99.58 226.53 -92.77 233.34 -91.41 231.98 -98.22 225.17 -91.41 218.35 -92.77 216.99 -99.58 223.8 -106.4 216.99 -107.76 218.35 -100.95 225.17 -107.76 231.98 -106.4 233.34 -99.58 226.53"/>
    </clipPath>
    <clipPath id="clip-path-10">
      <polygon class="cls-3" points="-10.67 226.28 -3.85 233.09 -2.49 231.73 -9.3 224.92 -2.49 218.1 -3.85 216.74 -10.67 223.56 -17.48 216.74 -18.84 218.1 -12.03 224.92 -18.84 231.73 -17.48 233.09 -10.67 226.28"/>
    </clipPath>
    <clipPath id="clip-path-11">
      <polygon class="cls-3" points="58.17 226.61 64.98 233.43 66.34 232.06 59.53 225.25 66.34 218.44 64.98 217.08 58.17 223.89 51.35 217.08 49.99 218.44 56.8 225.25 49.99 232.06 51.35 233.43 58.17 226.61"/>
    </clipPath>
  </defs>
  <title>Untitled-1</title>
  <g>
    <rect class="cls-4" x="45.25" y="118.33" width="52" height="52"/>
    <g class="cls-8">
      <rect class="cls-4" x="-93.85" y="-146.12" width="947.7" height="1267.31"/>
    </g>
  </g>
  <g>
    <polygon class="cls-9" points="71.25 145.7 78.06 152.51 79.43 151.15 72.61 144.33 79.43 137.52 78.06 136.16 71.25 142.97 64.44 136.16 63.07 137.52 69.89 144.33 63.07 151.15 64.44 152.51 71.25 145.7"/>
    <g class="cls-10">
      <rect x="-93.49" y="-108.2" width="941.13" height="1101.22"/>
    </g>
  </g>
  <polygon class="cls-16" points="25.68 32.43 26.75 31.37 15.38 20 26.75 8.63 25.68 7.57 13.26 20 25.68 32.43"/>
</svg>
