<?xml version="1.0" encoding="utf-8"?>
<!-- Generator: Adobe Illustrator 25.0.1, SVG Export Plug-In . SVG Version: 6.00 Build 0)  -->
<svg version="1.1" id="Layer_1" xmlns="http://www.w3.org/2000/svg" xmlns:xlink="http://www.w3.org/1999/xlink" x="0px" y="0px"
	 viewBox="0 0 34.4 34.4" style="enable-background:new 0 0 34.4 34.4;" xml:space="preserve">
<style type="text/css">
	.st0{fill:#EA2626;stroke:#EA2626;stroke-miterlimit:10;}
	.st1{fill:none;stroke:#FFFFFF;stroke-width:1.5;stroke-miterlimit:10;}
	.st2{fill:none;stroke:#FFFFFF;stroke-width:1.5;stroke-linecap:round;stroke-miterlimit:10;}
</style>
<circle class="st0" cx="17.2" cy="17.2" r="16.5"/>
<g id="Page-1">
	<g id="Sodium-HCB_x2B_LVonly_x5F_5-Copy" transform="translate(-1035.000000, -741.000000)">
		<path class="st1" d="M1055.5,760.2v1.6c-0.1,1-2.1,1.5-6.2,1.5c-2.3,0-6.2-0.2-6.2-1.5v-7.1c0-1,2.1-1.5,6.2-1.5
			c2.3,0,6.2,0.2,6.2,1.5v1.7l4.2-3.1c0.2-0.1,0.4-0.2,0.6-0.2c0.1,0,0.9,0.1,0.9,1.1v7.8c0,0.6-0.2,1-0.6,1.2
			c-0.4,0.1-0.7,0-0.9-0.2L1055.5,760.2z M1060.4,762.3L1060.4,762.3L1060.4,762.3z"/>
	</g>
</g>
<line class="st2" x1="7.2" y1="9.4" x2="24.9" y2="27.1"/>
</svg>
