<?xml version="1.0" encoding="utf-8"?>
<!-- Generator: Adobe Illustrator 25.0.0, SVG Export Plug-In . SVG Version: 6.00 Build 0)  -->
<svg version="1.1" id="Layer_1" xmlns="http://www.w3.org/2000/svg" xmlns:xlink="http://www.w3.org/1999/xlink" x="0px" y="0px"
	 viewBox="0 0 18.6 15.6" style="enable-background:new 0 0 18.6 15.6;" xml:space="preserve">
<path d="M17.7,2.5c-0.2,0-0.4,0.1-0.6,0.2l-3.9,2.7l-0.1,0.1c-0.1,0.1-0.2,0.2-0.2,0.3V4c0-1.3-3.9-1.5-6.2-1.5
	c-1.3,0-2.4,0.1-3.3,0.2L0.9,0.2c-0.2-0.2-0.6-0.2-0.8,0c-0.2,0.2-0.2,0.6,0,0.8l1.9,1.9C1,3.1,0.5,3.5,0.5,4v7.1
	c0,1.3,3.9,1.5,6.2,1.5c2.1,0,3.7-0.1,4.7-0.4l3.3,3.3c0.1,0.1,0.2,0.2,0.4,0.2s0.3-0.1,0.4-0.2c0.2-0.2,0.2-0.6,0-0.8l-2.9-2.9
	c0.3-0.2,0.4-0.4,0.4-0.6V9.3c0.1,0.1,0.1,0.2,0.2,0.3l3.9,2.7c0.2,0.2,0.6,0.3,0.9,0.2c0.4-0.2,0.6-0.5,0.6-1.2V3.6
	C18.6,2.6,17.9,2.5,17.7,2.5z M6.7,11.5c-3.3,0-4.7-0.4-5.1-0.6V4.2C1.8,4.1,2.2,3.9,3,3.8l7.5,7.5C9.7,11.4,8.5,11.5,6.7,11.5z
	 M4.4,3.7c0.6,0,1.4-0.1,2.3-0.1c3.3,0,4.7,0.4,5.1,0.6v6.7c0,0-0.1,0-0.1,0L4.4,3.7z M17.5,11.3l-3.6-2.5c0,0-0.1-0.1-0.1-0.1V6.4
	c0,0,0-0.1,0-0.1l3.6-2.5V11.3z"/>
</svg>
