<?xml version="1.0" encoding="utf-8"?>
<!-- Generator: Adobe Illustrator 25.0.1, SVG Export Plug-In . SVG Version: 6.00 Build 0)  -->
<svg version="1.1" id="Layer_1" xmlns="http://www.w3.org/2000/svg" xmlns:xlink="http://www.w3.org/1999/xlink" x="0px" y="0px"
	 viewBox="0 0 28.9 20.6" style="enable-background:new 0 0 28.9 20.6;" xml:space="preserve">
<style type="text/css">
	.st0{fill:none;stroke:#FFFFFF;stroke-width:1.5114;stroke-miterlimit:20;}
	.st1{fill:none;stroke:#FFFFFF;stroke-width:1.5114;stroke-linejoin:round;stroke-miterlimit:20;}
</style>
<circle class="st0" cx="15" cy="10.4" r="3.3"/>
<path class="st1" d="M17.2,18c0.1-0.7,0.5-1.4,1.1-1.7c0.6-0.4,1.4-0.4,2-0.1l1.3,0.6c1-1,1.7-2.3,2.1-3.7l-1.2-0.9
	c-0.6-0.4-0.9-1.1-0.9-1.8c0-0.7,0.3-1.4,0.9-1.8l1.2-0.9c-0.4-1.4-1.2-2.6-2.1-3.7l-1.3,0.6c-0.7,0.3-1.4,0.2-2-0.1
	c-0.6-0.4-1-1-1.1-1.7l-0.2-1.5c-0.7-0.2-1.4-0.3-2.1-0.3c-0.7,0-1.4,0.1-2.1,0.3l-0.2,1.5c-0.1,0.7-0.5,1.4-1.1,1.7
	c-0.6,0.4-1.4,0.4-2,0.1L8.2,4c-1,1-1.7,2.3-2.1,3.7l1.2,0.9C7.8,9,8.2,9.7,8.2,10.4c0,0.7-0.3,1.4-0.9,1.8L6,13.1
	c0.4,1.4,1.2,2.6,2.1,3.7l1.3-0.6c0.7-0.3,1.4-0.2,2,0.1c0.6,0.4,1,1,1.1,1.7l0.2,1.5c0.7,0.2,1.4,0.3,2.1,0.3
	c0.7,0,1.4-0.1,2.1-0.3L17.2,18z"/>
</svg>
