<?xml version="1.0" encoding="utf-8"?>
<!-- Generator: Adobe Illustrator 26.0.2, SVG Export Plug-In . SVG Version: 6.00 Build 0)  -->
<svg version="1.1" id="Layer_1" xmlns="http://www.w3.org/2000/svg" xmlns:xlink="http://www.w3.org/1999/xlink" x="0px" y="0px"
	 viewBox="0 0 28.9 20.6" style="enable-background:new 0 0 28.9 20.6;" xml:space="preserve">
<style type="text/css">
	.st0{fill:none;stroke:#FFFFFF;stroke-width:1.5114;stroke-miterlimit:20;}
	.st1{fill:none;stroke:#FFFFFF;stroke-width:1.5114;stroke-linejoin:round;stroke-miterlimit:20;}
</style>
<circle class="st0" cx="14.4" cy="10.3" r="3.3"/>
<path class="st1" d="M16.8,17.9c0.1-0.7,0.5-1.4,1.1-1.7c0.6-0.4,1.4-0.4,2-0.1l1.3,0.6c1-1,1.7-2.3,2.1-3.7l-1.2-0.9
	c-0.6-0.4-0.9-1.1-0.9-1.8s0.3-1.4,0.9-1.8l1.2-0.9c-0.4-1.4-1.2-2.6-2.1-3.7l-1.3,0.6c-0.7,0.3-1.4,0.2-2-0.1c-0.6-0.4-1-1-1.1-1.7
	l-0.2-1.5c-0.7-0.2-1.4-0.3-2.1-0.3c-0.7,0-1.4,0.1-2.1,0.3l-0.2,1.5c-0.1,0.7-0.5,1.4-1.1,1.7c-0.6,0.4-1.4,0.4-2,0.1L7.8,3.9
	c-1,1-1.7,2.3-2.1,3.7l1.2,0.9c0.5,0.4,0.9,1.1,0.9,1.8s-0.3,1.4-0.9,1.8L5.6,13c0.4,1.4,1.2,2.6,2.1,3.7L9,16.1
	c0.7-0.3,1.4-0.2,2,0.1c0.6,0.4,1,1,1.1,1.7l0.2,1.5c0.7,0.2,1.4,0.3,2.1,0.3c0.7,0,1.4-0.1,2.1-0.3L16.8,17.9z"/>
</svg>
