<?xml version="1.0" encoding="utf-8"?>
<!-- Generator: Adobe Illustrator 25.2.1, SVG Export Plug-In . SVG Version: 6.00 Build 0)  -->
<svg version="1.1" id="Layer_1" xmlns="http://www.w3.org/2000/svg" xmlns:xlink="http://www.w3.org/1999/xlink" x="0px" y="0px"
	 viewBox="0 0 18.6 15.6" style="enable-background:new 0 0 18.6 15.6;" xml:space="preserve">
<style type="text/css">
	.st0{fill:#8C8C8C;}
</style>
<path class="st0" d="M17.6,1.1c-0.2,0-0.4,0.1-0.6,0.2l-4.2,3.1V2.7c0-1.3-3.9-1.5-6.2-1.5c-4.1,0-6.2,0.5-6.2,1.5v7.1
	c0,0.8,1.4,1.2,3,1.3l-0.6,1c-0.3,0.5,0.1,1.1,0.6,1.1h9.1c0.6,0,0.9-0.6,0.6-1.1l-0.9-1.7c0.3-0.2,0.5-0.4,0.5-0.7V8l4.1,3
	c0.2,0.1,0.5,0.3,0.9,0.2c0.4-0.2,0.6-0.6,0.6-1.2V2.2C18.5,1.2,17.7,1.1,17.6,1.1z M8,12.3c-0.4,0-0.7-0.3-0.7-0.7s0.3-0.7,0.7-0.7
	s0.7,0.3,0.7,0.7C8.8,12,8.4,12.3,8,12.3z M7.5,9.8V6.1c0-0.3,0.2-0.5,0.5-0.5s0.5,0.2,0.5,0.5v3.7c0,0.3-0.2,0.5-0.5,0.5
	S7.5,10.1,7.5,9.8z M8.7,4.1c-0.3-0.5-1-0.5-1.3,0l-3.4,6C2.5,10,1.7,9.8,1.5,9.6V2.9c0.4-0.2,1.8-0.6,5.1-0.6s4.7,0.4,5.1,0.6v6.4
	L8.7,4.1z M17.4,10.1l-4.5-3.2V5.8l4.5-3.2V10.1z"/>
</svg>
