<?xml version="1.0" encoding="utf-8"?>
<!-- Generator: Adobe Illustrator 25.0.0, SVG Export Plug-In . SVG Version: 6.00 Build 0)  -->
<svg version="1.1" id="Layer_1" xmlns="http://www.w3.org/2000/svg" xmlns:xlink="http://www.w3.org/1999/xlink" x="0px" y="0px"
	 viewBox="0 0 18.6 15.6" style="enable-background:new 0 0 18.6 15.6;" xml:space="preserve">
<g id="Page-1">
	<g id="Sodium-HCB_x2B_LVonly_x5F_5-Copy" transform="translate(-1035.000000, -741.000000)">
		<path d="M1041.7,753.6c-2.3,0-6.2-0.2-6.2-1.5V745c0-1,2.1-1.5,6.2-1.5c2.3,0,6.2,0.2,6.2,1.5v1.7c0.1-0.1,0.2-0.2,0.2-0.3
			l0.1-0.1l3.9-2.7c0.2-0.1,0.4-0.2,0.6-0.2c0.1,0,0.9,0.1,0.9,1.1v7.8c0,0.6-0.2,1-0.6,1.2c-0.4,0.1-0.7,0-0.9-0.2l-3.9-2.7
			c-0.1-0.1-0.2-0.2-0.2-0.3v1.8C1047.9,753.1,1045.8,753.6,1041.7,753.6z M1052.8,752.6L1052.8,752.6L1052.8,752.6z M1036.6,751.9
			c0.4,0.2,1.8,0.6,5.1,0.6c3.3,0,4.7-0.4,5.1-0.6v-6.7c-0.4-0.2-1.8-0.6-5.1-0.6c-3.3,0-4.7,0.4-5.1,0.6V751.9z M1048.9,749.9
			l3.6,2.5v-7.5l-3.6,2.5c0,0.1,0,0.1,0,0.1v2.3C1048.8,749.8,1048.9,749.8,1048.9,749.9z"/>
	</g>
</g>
</svg>
