<?xml version="1.0" encoding="utf-8"?>
<!-- Generator: Adobe Illustrator 23.0.3, SVG Export Plug-In . SVG Version: 6.00 Build 0)  -->
<svg version="1.1" id="Layer_1" xmlns="http://www.w3.org/2000/svg" xmlns:xlink="http://www.w3.org/1999/xlink" x="0px" y="0px"
	 viewBox="0 0 433 432" style="enable-background:new 0 0 433 432;" xml:space="preserve">
<style type="text/css">
	.st0{fill:#015db9;;}
</style>
<path class="st0" d="M216,0v52l125.2,0.2L134,259.4c-4.7,4.7-4.7,12.3,0,17l22.6,22.6c4.7,4.7,12.3,4.7,17,0L382.3,90.3L381,217h52
	V0H216z"/>
<g>
	<path class="st0" d="M373,366c0,3.3-2.7,6-6,6H66c-3.3,0-6-2.7-6-6V66c0-3.3,2.7-6,6-6h85.7V0H48C21.5,0,0,21.5,0,48v336
		c0,26.5,21.5,48,48,48h337c26.5,0,48-21.5,48-48V281.7h-60V366z"/>
</g>
</svg>
