<?xml version="1.0" encoding="utf-8"?>
<!-- Generator: Adobe Illustrator 25.0.0, SVG Export Plug-In . SVG Version: 6.00 Build 0)  -->
<svg version="1.1" id="Layer_1" xmlns="http://www.w3.org/2000/svg" xmlns:xlink="http://www.w3.org/1999/xlink" x="0px" y="0px"
	 viewBox="0 0 35.6 35.6" style="enable-background:new 0 0 35.6 35.6;" xml:space="preserve">
<style type="text/css">
	.st0{fill:#8C8C8C;}
</style>
<path class="st0" d="M33.1,8.2c-0.4,0-0.7,0.2-1.1,0.4L25,13.4l-0.2,0.2c-0.2,0.2-0.4,0.4-0.4,0.5v-3.3c0-2.4-7.1-2.7-11.2-2.7
	c-2.4,0-4.3,0.2-6,0.4L2.7,4C2.4,3.7,1.6,3.7,1.3,4s-0.4,1.1,0,1.4l3.4,3.4C2.9,9.3,2,10,2,10.9v12.8c0,2.4,7.1,2.7,11.2,2.7
	c3.8,0,6.7-0.2,8.5-0.7l6,6c0.2,0.2,0.4,0.4,0.7,0.4c0.4,0,0.5-0.2,0.7-0.4c0.4-0.4,0.4-1.1,0-1.4L23.9,25c0.5-0.4,0.7-0.7,0.7-1.1
	v-3.4c0.2,0.2,0.2,0.4,0.4,0.5l7.1,4.9c0.4,0.4,1.1,0.5,1.6,0.4c0.7-0.4,1.1-0.9,1.1-2.2V10.2C34.7,8.4,33.5,8.2,33.1,8.2z
	 M13.2,24.5c-6,0-8.5-0.7-9.2-1.1V11.3c0.4-0.2,1.1-0.5,2.5-0.7l13.6,13.6C18.6,24.3,16.5,24.5,13.2,24.5z M9,10.4
	c1.1,0,2.5-0.2,4.2-0.2c6,0,8.5,0.7,9.2,1.1v12.1h-0.2L9,10.4z M32.7,24.1l-6.5-4.5L26,19.4v-4.2v-0.2l6.5-4.5v13.6H32.7z"/>
</svg>
