<svg id="Layer_1" data-name="Layer 1" xmlns="http://www.w3.org/2000/svg" xmlns:xlink="http://www.w3.org/1999/xlink" viewBox="0 0 45 45">
  <defs>
    <style>
      .cls-1, .cls-2, .cls-3 {
        fill: none;
      }

      .cls-11, .cls-15, .cls-2 {
        fill-rule: evenodd;
      }

      .cls-3, .cls-4, .cls-7 {
        clip-rule: evenodd;
      }

      .cls-15, .cls-4, .cls-5 {
        fill: #fff;
      }

      .cls-6 {
        fill: #ff6178;
      }

      .cls-8 {
        clip-path: url(#clip-path);
      }

      .cls-9 {
        clip-path: url(#clip-path-2);
      }

      .cls-10 {
        clip-path: url(#clip-path-3);
      }

      .cls-12 {
        clip-path: url(#clip-path-4);
      }

      .cls-13 {
        clip-path: url(#clip-path-5);
      }

      .cls-14 {
        clip-path: url(#clip-path-8);
      }

      .cls-16 {
        clip-path: url(#clip-path-9);
      }

      .cls-17 {
        clip-path: url(#clip-path-10);
      }

      .cls-18 {
        clip-path: url(#clip-path-11);
      }
    </style>
    <clipPath id="clip-path">
      <rect class="cls-1" x="-177" y="208.25" width="52" height="52"/>
    </clipPath>
    <clipPath id="clip-path-2">
      <polygon class="cls-3" points="-151 235.61 -144.19 242.43 -142.82 241.06 -149.64 234.25 -142.82 227.44 -144.19 226.07 -151 232.89 -157.81 226.07 -159.18 227.44 -152.36 234.25 -159.18 241.06 -157.81 242.43 -151 235.61"/>
    </clipPath>
    <clipPath id="clip-path-3">
      <rect class="cls-6" x="-97" y="208.25" width="52" height="52"/>
    </clipPath>
    <clipPath id="clip-path-4">
      <polygon class="cls-7" points="-71 235.61 -64.19 242.43 -62.82 241.06 -69.64 234.25 -62.82 227.44 -64.19 226.07 -71 232.89 -77.81 226.07 -79.18 227.44 -72.36 234.25 -79.18 241.06 -77.81 242.43 -71 235.61"/>
    </clipPath>
    <clipPath id="clip-path-5">
      <polygon class="cls-3" points="-92.02 169.72 -85.21 176.53 -83.84 175.17 -90.66 168.36 -83.84 161.54 -85.21 160.18 -92.02 167 -98.83 160.18 -100.2 161.54 -93.38 168.36 -100.2 175.17 -98.83 176.53 -92.02 169.72"/>
    </clipPath>
    <clipPath id="clip-path-8">
      <polygon class="cls-3" points="-71.13 235.65 -64.31 242.47 -62.95 241.1 -69.76 234.29 -62.95 227.48 -64.31 226.12 -71.13 232.93 -77.94 226.12 -79.3 227.48 -72.49 234.29 -79.3 241.1 -77.94 242.47 -71.13 235.65"/>
    </clipPath>
    <clipPath id="clip-path-9">
      <polygon class="cls-4" points="21.57 23.46 21.57 33.1 23.5 33.1 23.5 23.46 33.13 23.46 33.13 21.54 23.5 21.54 23.5 11.9 21.57 11.9 21.57 21.54 11.93 21.54 11.93 23.46 21.57 23.46"/>
    </clipPath>
    <clipPath id="clip-path-10">
      <rect class="cls-5" x="-522.6" y="-21.05" width="1101.22" height="941.13" transform="translate(-309.66 151.47) rotate(-45)"/>
    </clipPath>
    <clipPath id="clip-path-11">
      <polygon class="cls-4" points="83.09 23.59 92.72 23.59 92.72 21.66 83.09 21.66 81.16 21.66 71.53 21.66 71.53 23.59 81.16 23.59 83.09 23.59"/>
    </clipPath>
  </defs>
  <title>Untitled-1</title>
  <g>
    <rect class="cls-6" x="-97" y="208.25" width="52" height="52"/>
    <g class="cls-10">
      <rect class="cls-6" x="-236.1" y="-56.21" width="947.7" height="1267.31"/>
    </g>
  </g>
  <g>
    <polygon class="cls-11" points="-71 235.61 -64.19 242.43 -62.82 241.06 -69.64 234.25 -62.82 227.44 -64.19 226.07 -71 232.89 -77.81 226.07 -79.18 227.44 -72.36 234.25 -79.18 241.06 -77.81 242.43 -71 235.61"/>
    <g class="cls-12">
      <rect x="-235.74" y="-18.28" width="941.13" height="1101.22"/>
    </g>
  </g>
  <g>
    <polygon class="cls-15" points="21.57 23.46 21.57 33.1 23.5 33.1 23.5 23.46 33.13 23.46 33.13 21.54 23.5 21.54 23.5 11.9 21.57 11.9 21.57 21.54 11.93 21.54 11.93 23.46 21.57 23.46"/>
    <g class="cls-16">
      <g>
        <rect class="cls-5" x="-522.6" y="-21.05" width="1101.22" height="941.13" transform="translate(-309.66 151.47) rotate(-45)"/>
        <g class="cls-17">
          <rect class="cls-5" x="5.48" y="5.45" width="34.11" height="34.11"/>
        </g>
      </g>
    </g>
  </g>
  <g>
    <polygon class="cls-15" points="83.09 23.59 92.72 23.59 92.72 21.66 83.09 21.66 81.16 21.66 71.53 21.66 71.53 23.59 81.16 23.59 83.09 23.59"/>
    <g class="cls-18">
      <rect class="cls-5" x="-463.01" y="-20.92" width="1101.22" height="941.13" transform="translate(-292.29 193.64) rotate(-45)"/>
    </g>
  </g>
</svg>
