<?xml version="1.0" encoding="utf-8"?>
<!-- Generator: Adobe Illustrator 25.2.0, SVG Export Plug-In . SVG Version: 6.00 Build 0)  -->
<svg version="1.1" id="Layer_1" xmlns="http://www.w3.org/2000/svg" xmlns:xlink="http://www.w3.org/1999/xlink" x="0px" y="0px"
	 viewBox="0 0 16.9 13.5" style="enable-background:new 0 0 16.9 13.5;" xml:space="preserve">
<path d="M14.5,11.4c-0.1-0.1-1.1-2-3.8-2.8c0.9-0.7,1.5-1.8,1.5-3c0-2.1-1.7-3.8-3.7-3.8c-2.1,0-3.7,1.7-3.7,3.8
	c0,1.2,0.6,2.2,1.4,2.9c-2.9,0.7-3.9,2.7-4,2.8c0,0.1-0.1,0.2-0.1,0.2V13c0,0.3,0.2,0.5,0.5,0.5H14c0.3,0,0.5-0.2,0.5-0.5v-1.4
	C14.5,11.5,14.5,11.4,14.5,11.4z M8.4,2.9c1.5,0,2.6,1.2,2.6,2.7c0,1.5-1.2,2.6-2.6,2.6c-1.5,0-2.6-1.2-2.6-2.6
	C5.8,4.1,6.9,2.9,8.4,2.9z M13.5,12.5H3.1v-0.7c0.3-0.5,1.7-2.4,5.1-2.4c3.5,0,4.9,1.9,5.2,2.4V12.5z"/>
</svg>
