<?xml version="1.0" encoding="UTF-8"?>
<svg width="12px" height="12px" viewBox="0 0 12 12" version="1.1" xmlns="http://www.w3.org/2000/svg" xmlns:xlink="http://www.w3.org/1999/xlink">
    <title>Path</title>
    <g id="Page-1" stroke="none" stroke-width="1" fill="none" fill-rule="evenodd">
        <g id="icon-delete" transform="translate(-0.000000, 0.000000)" fill="#C12B18" fill-rule="nonzero">
            <path d="M1.63647523,0.000153418806 C1.49691062,0.000153418806 1.35719257,0.0533168055 1.25083171,0.159950498 L0.159950498,1.25083171 C-0.0533168328,1.46409899 -0.0533168328,1.80939698 0.159950498,2.02211876 L4.13783203,6 L0.159950498,9.9778815 C-0.0533168328,10.1911488 -0.0533168328,10.5364465 0.159950498,10.7491683 L1.25083171,11.8400495 C1.46409899,12.0533168 1.80939698,12.0533168 2.02211876,11.8400495 L6,7.86216812 L9.9778815,11.8400495 C10.1906033,12.0533168 10.5364465,12.0533168 10.7491683,11.8400495 L11.8400495,10.7491683 C12.0533168,10.5359011 12.0533168,10.1906033 11.8400495,9.9778815 L7.86216812,6 L11.8400495,2.02211876 C12.0533168,1.80939692 12.0533168,1.46355354 11.8400495,1.25083171 L10.7491683,0.159950498 C10.5359011,-0.0533168328 10.1906033,-0.0533168328 9.9778815,0.159950498 L6,4.13783203 L2.02211876,0.159950498 C1.91548512,0.0533168055 1.77603985,0.000153418806 1.63647523,0.000153418806 Z" id="Path"></path>
        </g>
    </g>
</svg>