<?xml version="1.0" encoding="utf-8"?>
<!-- Generator: Adobe Illustrator 26.0.2, SVG Export Plug-In . SVG Version: 6.00 Build 0)  -->
<svg version="1.1" id="Layer_1" xmlns="http://www.w3.org/2000/svg" xmlns:xlink="http://www.w3.org/1999/xlink" x="0px" y="0px"
	 viewBox="0 0 19.2 20.3" style="enable-background:new 0 0 19.2 20.3;" xml:space="preserve">
<style type="text/css">
	.st0{fill:#FFFFFF;}
</style>
<path class="st0" d="M9.6,14.2c-2.2,0-4.1-1.8-4.1-4.1s1.8-4.1,4.1-4.1c2.2,0,4.1,1.8,4.1,4.1S11.8,14.2,9.6,14.2z M9.6,7.6
	C8.2,7.6,7,8.8,7,10.2c0,1.4,1.1,2.5,2.5,2.5s2.5-1.1,2.5-2.5C12.1,8.8,11,7.6,9.6,7.6z"/>
<path class="st0" d="M9.6,20.3c-0.8,0-1.5-0.1-2.3-0.3c-0.3-0.1-0.5-0.3-0.5-0.6l-0.2-1.5c-0.1-0.5-0.3-0.9-0.8-1.2
	c-0.4-0.2-0.9-0.2-1.3,0l-1.3,0.6c-0.3,0.1-0.7,0.1-0.9-0.2c-1.2-1.4-1.9-2.7-2.2-4c-0.1-0.3,0-0.6,0.3-0.8l1.3-0.9
	c0.4-0.2,0.6-0.7,0.6-1.2c0-0.4-0.3-0.9-0.6-1.2L0.4,8.1C0.2,7.9,0,7.5,0.1,7.2c0.5-1.6,1.2-3,2.3-4C2.6,3,3,2.9,3.3,3.1l1.3,0.6
	c0.4,0.2,0.9,0.2,1.3,0c0.4-0.2,0.7-0.7,0.8-1.2L6.8,1c0-0.3,0.3-0.5,0.5-0.6c1.5-0.4,3.1-0.4,4.6,0c0.3,0.1,0.5,0.3,0.5,0.6
	l0.2,1.5c0.1,0.5,0.3,0.9,0.8,1.2c0.4,0.2,0.9,0.2,1.3,0L16,3.1c0.3-0.1,0.7-0.1,0.9,0.2c1.2,1.4,1.9,2.7,2.2,4
	c0.1,0.3,0,0.6-0.3,0.8L17.7,9c-0.4,0.3-0.6,0.7-0.6,1.2c0,0.5,0.2,0.9,0.6,1.2l1.2,0.9c0.3,0.2,0.4,0.5,0.3,0.8
	c-0.5,1.6-1.2,3-2.3,4c-0.2,0.2-0.6,0.3-0.9,0.2l-1.3-0.6c-0.4-0.2-0.9-0.2-1.3,0c-0.4,0.2-0.7,0.7-0.8,1.2c0,0,0,0,0,0l-0.3,1.5
	c-0.1,0.3-0.3,0.5-0.5,0.6C11.1,20.2,10.3,20.3,9.6,20.3z M8.1,18.6c1,0.2,1.9,0.2,2.9,0l0.2-1c0.2-1,0.7-1.9,1.5-2.2
	c0.7-0.5,1.8-0.5,2.7-0.1l0.8,0.4c0.6-0.7,1.1-1.5,1.4-2.5l-0.8-0.6c-0.7-0.5-1.2-1.4-1.2-2.4c0-1,0.5-1.9,1.2-2.4l0.7-0.6
	c-0.3-0.8-0.8-1.6-1.4-2.5L15.4,5c-0.9,0.4-1.8,0.3-2.7-0.1c-0.9-0.6-1.4-1.4-1.5-2.3l-0.1-1c-0.9-0.2-1.9-0.2-2.8,0l-0.1,1
	C8,3.7,7.4,4.5,6.6,4.9C5.9,5.4,4.8,5.5,3.9,5L3.1,4.7C2.5,5.4,2.1,6.2,1.7,7.2l0.8,0.6c0.7,0.6,1.2,1.5,1.2,2.4
	c0,1-0.5,1.9-1.2,2.4l-0.8,0.6c0.3,0.8,0.8,1.6,1.4,2.5l0.8-0.4c0.9-0.4,1.8-0.3,2.7,0.1C7.4,16,7.9,16.7,8,17.6L8.1,18.6z"/>
</svg>
