<?xml version="1.0" encoding="UTF-8"?>
<svg width="16px" height="16px" viewBox="0 0 16 16" version="1.1" xmlns="http://www.w3.org/2000/svg" xmlns:xlink="http://www.w3.org/1999/xlink">
    <title>Fill 1 4</title>
    <g id="Page-1" stroke="none" stroke-width="1" fill="none" fill-rule="evenodd">
        <path d="M1.6738,5.739 C1.6738,3.497 3.4968,1.674 5.7378,1.674 C7.9798,1.674 9.8028,3.497 9.8028,5.739 C9.8028,7.981 7.9798,9.804 5.7378,9.804 C3.4968,9.804 1.6738,7.981 1.6738,5.739 L1.6738,5.739 Z M15.8318,14.648 L10.3378,9.156 C11.0498,8.2 11.4768,7.02 11.4768,5.739 C11.4768,2.575 8.9028,0 5.7378,0 C2.5738,0 -0.0002,2.575 -0.0002,5.739 C-0.0002,8.903 2.5738,11.478 5.7378,11.478 C7.0188,11.478 8.1988,11.051 9.1548,10.339 L14.6478,15.832 L15.8318,14.648 Z" id="Fill-1" fill="#fff"></path>
    </g>
</svg>