<svg id="Layer_1" data-name="Layer 1" xmlns="http://www.w3.org/2000/svg" xmlns:xlink="http://www.w3.org/1999/xlink" viewBox="0 0 52 52">
  <defs>
    <style>
      .cls-1, .cls-2 {
        fill: none;
      }

      .cls-2, .cls-4 {
        clip-rule: evenodd;
      }

      .cls-3 {
        fill: #ff6178;
      }

      .cls-5 {
        clip-path: url(#clip-path);
      }

      .cls-6 {
        clip-path: url(#clip-path-2);
      }

      .cls-7 {
        clip-path: url(#clip-path-3);
      }

      .cls-8 {
        fill-rule: evenodd;
      }

      .cls-9 {
        clip-path: url(#clip-path-4);
      }

      .cls-10 {
        clip-path: url(#clip-path-5);
      }

      .cls-11 {
        fill: #fff;
      }
    </style>
    <clipPath id="clip-path">
      <rect class="cls-1" x="90.83" y="-80.83" width="52" height="52"/>
    </clipPath>
    <clipPath id="clip-path-2">
      <polygon class="cls-2" points="116.83 -53.47 123.65 -46.66 125.01 -48.02 118.2 -54.83 125.01 -61.65 123.65 -63.01 116.83 -56.2 110.02 -63.01 108.66 -61.65 115.47 -54.83 108.66 -48.02 110.02 -46.66 116.83 -53.47"/>
    </clipPath>
    <clipPath id="clip-path-3">
      <rect class="cls-3" x="170.83" y="-80.83" width="52" height="52"/>
    </clipPath>
    <clipPath id="clip-path-4">
      <polygon class="cls-4" points="196.83 -53.47 203.65 -46.66 205.01 -48.02 198.2 -54.83 205.01 -61.65 203.65 -63.01 196.83 -56.2 190.02 -63.01 188.66 -61.65 195.47 -54.83 188.66 -48.02 190.02 -46.66 196.83 -53.47"/>
    </clipPath>
    <clipPath id="clip-path-5">
      <polygon class="cls-2" points="175.81 -119.36 182.63 -112.55 183.99 -113.91 177.18 -120.73 183.99 -127.54 182.63 -128.9 175.81 -122.09 169 -128.9 167.64 -127.54 174.45 -120.73 167.64 -113.91 169 -112.55 175.81 -119.36"/>
    </clipPath>
  </defs>
  <title>Untitled-1</title>
  <g>
    <rect class="cls-3" x="170.83" y="-80.83" width="52" height="52"/>
    <g class="cls-7">
      <rect class="cls-3" x="31.73" y="-345.29" width="947.7" height="1267.31"/>
    </g>
  </g>
  <g>
    <polygon class="cls-8" points="196.83 -53.47 203.65 -46.66 205.01 -48.02 198.2 -54.83 205.01 -61.65 203.65 -63.01 196.83 -56.2 190.02 -63.01 188.66 -61.65 195.47 -54.83 188.66 -48.02 190.02 -46.66 196.83 -53.47"/>
    <g class="cls-9">
      <rect x="32.09" y="-307.37" width="941.13" height="1101.22"/>
    </g>
  </g>
  <g>
    <g>
      <path class="cls-11" d="M16.79,23.24H19A3.24,3.24,0,0,1,20,23.4a2,2,0,0,1,.83.56,2.19,2.19,0,0,1,.52.94,5.9,5.9,0,0,1,.14,1.46,7.27,7.27,0,0,1-.08,1.15,2.43,2.43,0,0,1-.34.9,2.14,2.14,0,0,1-.8.78,2.7,2.7,0,0,1-1.32.28h-.75v4H16.79Zm1.46,4.84H19a1.5,1.5,0,0,0,.69-.13.82.82,0,0,0,.36-.35,1.38,1.38,0,0,0,.14-.54q0-.32,0-.7c0-.24,0-.47,0-.68a1.6,1.6,0,0,0-.13-.56.82.82,0,0,0-.34-.37,1.3,1.3,0,0,0-.66-.14h-.76Z"/>
      <path class="cls-11" d="M22.34,23.24H24.5a2.5,2.5,0,0,1,1.91.69,2.71,2.71,0,0,1,.66,1.94v4.77a2.84,2.84,0,0,1-.7,2.11,2.74,2.74,0,0,1-2,.68h-2Zm1.46,8.83h.67a1.09,1.09,0,0,0,.87-.31,1.49,1.49,0,0,0,.26-1V25.88a1.54,1.54,0,0,0-.24-.93,1,1,0,0,0-.89-.33H23.8Z"/>
      <path class="cls-11" d="M28.16,23.24h4.36v1.38h-2.9v3.1h2.52v1.38H29.62v4.36H28.16Z"/>
    </g>
    <polygon class="cls-11" points="39.92 22.2 38.11 22.2 38.11 14.74 30.65 14.74 30.65 12.94 39.92 12.94 39.92 22.2"/>
    <rect class="cls-11" x="29.35" y="16.87" width="11.2" height="1.8" transform="translate(-2.33 29.92) rotate(-45)"/>
    <polygon class="cls-11" points="36.74 40.09 12.39 40.09 12.39 15.73 29.1 15.73 29.1 17.53 14.19 17.53 14.19 38.28 34.94 38.28 34.94 23.24 36.74 23.24 36.74 40.09"/>
  </g>
</svg>
