<svg id="Layer_1" data-name="Layer 1" xmlns="http://www.w3.org/2000/svg" xmlns:xlink="http://www.w3.org/1999/xlink" viewBox="0 0 31.25 31.25">
  <defs>
    <style>
      .cls-1, .cls-2, .cls-3 {
        fill: none;
      }

      .cls-2, .cls-9 {
        fill-rule: evenodd;
      }

      .cls-3, .cls-5 {
        clip-rule: evenodd;
      }

      .cls-4 {
        fill: #ff6178;
      }

      .cls-6 {
        clip-path: url(#clip-path);
      }

      .cls-7 {
        clip-path: url(#clip-path-2);
      }

      .cls-8 {
        clip-path: url(#clip-path-3);
      }

      .cls-10 {
        clip-path: url(#clip-path-4);
      }

      .cls-11 {
        clip-path: url(#clip-path-5);
      }

      .cls-12 {
        clip-path: url(#clip-path-8);
      }

      .cls-13 {
        fill: #eaeaea;
      }
    </style>
    <clipPath id="clip-path">
      <rect class="cls-1" x="-139.5" y="201.25" width="52" height="52"/>
    </clipPath>
    <clipPath id="clip-path-2">
      <polygon class="cls-3" points="-113.5 228.61 -106.69 235.43 -105.32 234.06 -112.14 227.25 -105.32 220.44 -106.69 219.07 -113.5 225.89 -120.31 219.07 -121.68 220.44 -114.86 227.25 -121.68 234.06 -120.31 235.43 -113.5 228.61"/>
    </clipPath>
    <clipPath id="clip-path-3">
      <rect class="cls-4" x="-59.5" y="201.25" width="52" height="52"/>
    </clipPath>
    <clipPath id="clip-path-4">
      <polygon class="cls-5" points="-33.5 228.61 -26.69 235.43 -25.32 234.06 -32.14 227.25 -25.32 220.44 -26.69 219.07 -33.5 225.89 -40.31 219.07 -41.68 220.44 -34.86 227.25 -41.68 234.06 -40.31 235.43 -33.5 228.61"/>
    </clipPath>
    <clipPath id="clip-path-5">
      <polygon class="cls-3" points="-54.52 162.72 -47.71 169.53 -46.34 168.17 -53.16 161.36 -46.34 154.54 -47.71 153.18 -54.52 160 -61.33 153.18 -62.7 154.54 -55.88 161.36 -62.7 168.17 -61.33 169.53 -54.52 162.72"/>
    </clipPath>
    <clipPath id="clip-path-8">
      <polygon class="cls-3" points="-33.63 228.65 -26.81 235.47 -25.45 234.1 -32.26 227.29 -25.45 220.48 -26.81 219.12 -33.63 225.93 -40.44 219.12 -41.8 220.48 -34.99 227.29 -41.8 234.1 -40.44 235.47 -33.63 228.65"/>
    </clipPath>
  </defs>
  <title>Untitled-1</title>
  <g>
    <rect class="cls-4" x="-59.5" y="201.25" width="52" height="52"/>
    <g class="cls-8">
      <rect class="cls-4" x="-198.6" y="-63.21" width="947.7" height="1267.31"/>
    </g>
  </g>
  <g>
    <polygon class="cls-9" points="-33.5 228.61 -26.69 235.43 -25.32 234.06 -32.14 227.25 -25.32 220.44 -26.69 219.07 -33.5 225.89 -40.31 219.07 -41.68 220.44 -34.86 227.25 -41.68 234.06 -40.31 235.43 -33.5 228.61"/>
    <g class="cls-10">
      <rect x="-198.24" y="-25.28" width="941.13" height="1101.22"/>
    </g>
  </g>
  <polygon class="cls-13" points="20.79 12.46 15.81 17.44 10.84 12.46 9.67 13.63 15.81 19.77 21.96 13.63 20.79 12.46"/>
</svg>
