<?xml version="1.0" encoding="utf-8"?>
<!-- Generator: Adobe Illustrator 25.0.0, SVG Export Plug-In . SVG Version: 6.00 Build 0)  -->
<svg version="1.1" id="Layer_1" xmlns="http://www.w3.org/2000/svg" xmlns:xlink="http://www.w3.org/1999/xlink" x="0px" y="0px"
	 viewBox="0 0 13 13" style="enable-background:new 0 0 13 13;" xml:space="preserve">
<g id="Page-1">
	<g id="Sodium-HCB_x2B_LVonly_x5F_4" transform="translate(-657.000000, -249.000000)">
		<path id="Shape" d="M661.9,253.9v-4.2c0-0.3-0.1-0.5-0.3-0.6c-0.2-0.1-0.5-0.1-0.7,0c-0.2,0.1-0.3,0.4-0.3,0.6v2.8h-2.8
			c-0.3,0-0.5,0.1-0.6,0.3c-0.1,0.2-0.1,0.5,0,0.7c0.1,0.2,0.4,0.3,0.6,0.3H661.9z M669.3,253.9c0.4,0,0.7-0.3,0.7-0.7
			c0-0.4-0.3-0.7-0.7-0.7c0,0,0,0,0,0h-2.8v-2.8c0-0.4-0.3-0.7-0.6-0.7c0,0,0,0-0.1,0c-0.4,0-0.7,0.3-0.7,0.7v4.2H669.3z M661.2,262
			c0.4,0,0.7-0.3,0.7-0.7v-4.2h-4.2c0,0,0,0-0.1,0c-0.4,0-0.7,0.4-0.6,0.7c0,0.4,0.3,0.7,0.7,0.7h2.8v2.8c0,0.2,0.1,0.4,0.2,0.5
			S661,262,661.2,262z M665.8,262c0.4,0,0.7-0.3,0.7-0.7v-2.8h2.8c0.3,0,0.5-0.1,0.6-0.3c0.1-0.2,0.1-0.5,0-0.7
			c-0.1-0.2-0.4-0.3-0.6-0.3h-4.2v4.2c0,0.2,0.1,0.4,0.2,0.5S665.6,262,665.8,262z"/>
	</g>
</g>
</svg>
