<?xml version="1.0" encoding="utf-8"?>
<svg version="1.1" id="Layer_1" x="0px" y="0px" viewBox="0 0 16.9 13.5" style="enable-background:new 0 0 16.9 13.5;" xmlns="http://www.w3.org/2000/svg">
  <style type="text/css">
	.st0{fill:#606060;}
</style>
  <circle class="st0" cx="16.2" cy="5.5" r="0.7" style="fill: rgb(255, 255, 255);"/>
  <circle class="st0" cx="16.2" cy="3.5" r="0.5" style="fill: rgb(255, 255, 255);"/>
  <circle class="st0" cx="16.2" cy="1.8" r="0.4" style="fill: rgb(255, 255, 255);"/>
  <circle class="st0" cx="16.2" cy="0.4" r="0.4" style="fill: rgb(255, 255, 255);"/>
  <circle class="st0" cx="16.2" cy="7.3" r="0.5" style="fill: rgb(255, 255, 255);"/>
  <circle class="st0" cx="16.2" cy="9" r="0.4" style="fill: rgb(255, 255, 255);"/>
  <circle class="st0" cx="16.2" cy="10.5" r="0.4" style="fill: rgb(255, 255, 255);"/>
  <circle class="st0" cx="16.2" cy="11.8" r="0.3" style="fill: rgb(255, 255, 255);"/>
  <circle class="st0" cx="13.6" cy="5.5" r="0.7" style="fill: rgb(255, 255, 255);"/>
  <circle class="st0" cx="13.6" cy="3.5" r="0.5" style="fill: rgb(255, 255, 255);"/>
  <circle class="st0" cx="13.6" cy="1.8" r="0.4" style="fill: rgb(255, 255, 255);"/>
  <circle class="st0" cx="13.6" cy="0.4" r="0.4" style="fill: rgb(255, 255, 255);"/>
  <circle class="st0" cx="13.6" cy="7.3" r="0.5" style="fill: rgb(255, 255, 255);"/>
  <circle class="st0" cx="13.6" cy="9" r="0.4" style="fill: rgb(255, 255, 255);"/>
  <circle class="st0" cx="11" cy="1.8" r="0.4" style="fill: rgb(255, 255, 255);"/>
  <circle class="st0" cx="11" cy="0.4" r="0.4" style="fill: rgb(255, 255, 255);"/>
  <circle class="st0" cx="8.4" cy="1.8" r="0.4" style="fill: rgb(255, 255, 255);"/>
  <circle class="st0" cx="8.4" cy="0.4" r="0.4" style="fill: rgb(255, 255, 255);"/>
  <circle class="st0" cx="5.8" cy="1.8" r="0.4" style="fill: rgb(255, 255, 255);"/>
  <circle class="st0" cx="5.8" cy="0.4" r="0.4" style="fill: rgb(255, 255, 255);"/>
  <circle class="st0" cx="3.3" cy="5.5" r="0.7" style="fill: rgb(255, 255, 255);"/>
  <circle class="st0" cx="3.3" cy="3.5" r="0.5" style="fill: rgb(255, 255, 255);"/>
  <circle class="st0" cx="3.3" cy="1.8" r="0.4" style="fill: rgb(255, 255, 255);"/>
  <circle class="st0" cx="3.3" cy="0.4" r="0.4" style="fill: rgb(255, 255, 255);"/>
  <circle class="st0" cx="3.3" cy="7.3" r="0.5" style="fill: rgb(255, 255, 255);"/>
  <circle class="st0" cx="3.3" cy="9" r="0.4" style="fill: rgb(255, 255, 255);"/>
  <circle class="st0" cx="0.7" cy="5.5" r="0.7" style="fill: rgb(255, 255, 255);"/>
  <circle class="st0" cx="0.7" cy="3.5" r="0.5" style="fill: rgb(255, 255, 255);"/>
  <circle class="st0" cx="0.7" cy="1.8" r="0.4" style="fill: rgb(255, 255, 255);"/>
  <circle class="st0" cx="0.7" cy="0.4" r="0.4" style="fill: rgb(255, 255, 255);"/>
  <circle class="st0" cx="0.7" cy="7.3" r="0.5" style="fill: rgb(255, 255, 255);"/>
  <circle class="st0" cx="0.7" cy="9" r="0.4" style="fill: rgb(255, 255, 255);"/>
  <circle class="st0" cx="0.7" cy="10.5" r="0.4" style="fill: rgb(255, 255, 255);"/>
  <circle class="st0" cx="0.7" cy="11.8" r="0.3" style="fill: rgb(255, 255, 255);"/>
  <path d="M14.5,11.4c-0.1-0.1-1.1-2-3.8-2.8c0.9-0.7,1.5-1.8,1.5-3c0-2.1-1.7-3.8-3.7-3.8c-2.1,0-3.7,1.7-3.7,3.8 c0,1.2,0.6,2.2,1.4,2.9c-2.9,0.7-3.9,2.7-4,2.8c0,0.1-0.1,0.2-0.1,0.2V13c0,0.3,0.2,0.5,0.5,0.5H14c0.3,0,0.5-0.2,0.5-0.5v-1.4 C14.5,11.5,14.5,11.4,14.5,11.4z M8.4,2.9c1.5,0,2.6,1.2,2.6,2.7c0,1.5-1.2,2.6-2.6,2.6c-1.5,0-2.6-1.2-2.6-2.6 C5.8,4.1,6.9,2.9,8.4,2.9z M13.5,12.5H3.1v-0.7c0.3-0.5,1.7-2.4,5.1-2.4c3.5,0,4.9,1.9,5.2,2.4V12.5z" style="fill: rgb(255, 255, 255);"/>
</svg>