<?xml version="1.0" encoding="UTF-8"?><svg version="1.1" width="9px" height="15px" viewBox="0 0 9.0 15.0" xmlns="http://www.w3.org/2000/svg" xmlns:xlink="http://www.w3.org/1999/xlink"><defs><clipPath id="i0"><path d="M1309,0 L1309,814 L0,814 L0,0 L1309,0 Z"></path></clipPath><clipPath id="i1"><path d="M1.55555556,0 C2.41466517,0 3.11111111,0.696445945 3.11111111,1.55555556 C3.11111111,2.41466517 2.41466517,3.11111111 1.55555556,3.11111111 C0.696445945,3.11111111 0,2.41466517 0,1.55555556 C0,0.696445945 0.696445945,0 1.55555556,0 Z"></path></clipPath><clipPath id="i2"><path d="M1.55555556,0 C2.41466517,0 3.11111111,0.696445945 3.11111111,1.55555556 C3.11111111,2.41466517 2.41466517,3.11111111 1.55555556,3.11111111 C0.696445945,3.11111111 0,2.41466517 0,1.55555556 C0,0.696445945 0.696445945,0 1.55555556,0 Z"></path></clipPath></defs><g transform="translate(-277.0 -432.0)"><g clip-path="url(#i0)"><g transform="translate(277.0000000000001 432.70834822720474)"><g clip-path="url(#i1)"><polygon points="0,0 3.11111111,0 3.11111111,3.11111111 0,3.11111111 0,0" stroke="none" fill="#FFFFFF" fill-opacity="60%"></polygon></g><g transform="translate(5.444444444444343 0.0)"><g clip-path="url(#i1)"><polygon points="0,0 3.11111111,0 3.11111111,3.11111111 0,3.11111111 0,0" stroke="none" fill="#FFFFFF" fill-opacity="60%"></polygon></g></g><g transform="translate(0.0 5.444444444444343)"><g clip-path="url(#i2)"><polygon points="0,0 3.11111111,0 3.11111111,3.11111111 0,3.11111111 0,0" stroke="none" fill="#FFFFFF" fill-opacity="60%"></polygon></g></g><g transform="translate(5.444444444444343 5.444444444444343)"><g clip-path="url(#i2)"><polygon points="0,0 3.11111111,0 3.11111111,3.11111111 0,3.11111111 0,0" stroke="none" fill="#FFFFFF" fill-opacity="60%"></polygon></g></g><g transform="translate(0.0 10.888888888888687)"><g clip-path="url(#i1)"><polygon points="0,0 3.11111111,0 3.11111111,3.11111111 0,3.11111111 0,0" stroke="none" fill="#FFFFFF" fill-opacity="60%"></polygon></g></g><g transform="translate(5.444444444444343 10.888888888888687)"><g clip-path="url(#i1)"><polygon points="0,0 3.11111111,0 3.11111111,3.11111111 0,3.11111111 0,0" stroke="none" fill="#FFFFFF" fill-opacity="60%"></polygon></g></g></g></g></g></svg>