<?xml version="1.0" encoding="utf-8"?>
<!-- Generator: Adobe Illustrator 25.0.0, SVG Export Plug-In . SVG Version: 6.00 Build 0)  -->
<svg version="1.1" id="Layer_1" xmlns="http://www.w3.org/2000/svg" xmlns:xlink="http://www.w3.org/1999/xlink" x="0px" y="0px"
	 viewBox="0 0 52 52" style="enable-background:new 0 0 52 52;" xml:space="preserve">
<style type="text/css">
	.st0{fill:#FFFFFF;}
</style>
<g>
	<polygon class="st0" points="12.4,40.1 12.4,15.7 36.7,15.7 36.7,28 34.9,28 34.9,17.5 14.2,17.5 14.2,38.3 29.2,38.3 29.2,40.1 	
		"/>
</g>
<path class="st0" d="M34.9,30.5v6.4h-2.8l3.7,3.7l3.7-3.7h-2.8v-6.4H34.9z"/>
<rect x="31.3" y="41.1" class="st0" width="9.1" height="1.8"/>
<g>
	<path class="st0" d="M21.8,32.5h-1.5l-0.5-1.8c-0.2-0.6-0.3-1.3-0.4-1.8c-0.1,0.5-0.2,1.2-0.4,1.9l-0.5,1.8h-1.4l1.7-5.3l-1.6-5
		h1.5l0.4,1.6c0.1,0.4,0.3,1.1,0.4,1.7c0.1-0.6,0.3-1.3,0.4-1.7l0.5-1.6h1.4l-1.6,4.9L21.8,32.5z"/>
	<path class="st0" d="M26.5,32.5h-3.6V22.2h1.4v9h2.2V32.5z"/>
	<path class="st0" d="M31.7,30.2c0,1.4-0.8,2.4-2.2,2.4c-1.3,0-2.1-0.9-2.3-2.7l1.4-0.2c0.1,1.1,0.5,1.5,0.9,1.5
		c0.5,0,0.8-0.3,0.8-0.9c0-1-0.3-1.5-1.4-2.8c-0.9-1-1.5-2.1-1.5-3.2c0-1.3,0.7-2.3,2.1-2.3s2,1,2.2,2.3l-1.3,0.3
		c-0.2-0.9-0.4-1.3-0.8-1.3s-0.7,0.3-0.7,1s0.3,1.2,1.2,2.2C30.9,27.8,31.7,28.9,31.7,30.2z"/>
</g>
</svg>
