<?xml version="1.0" encoding="utf-8"?>
<!-- Generator: Adobe Illustrator 25.0.0, SVG Export Plug-In . SVG Version: 6.00 Build 0)  -->
<svg version="1.1" id="Layer_1" xmlns="http://www.w3.org/2000/svg" xmlns:xlink="http://www.w3.org/1999/xlink" x="0px" y="0px"
	 viewBox="0 0 13 13" style="enable-background:new 0 0 13 13;" xml:space="preserve">
<g id="Page-1">
	<g id="Sodium-HCB_x2B_LVonly_x5F_5" transform="translate(-999.000000, -740.000000)">
		<path id="Shape" d="M999,740v4.2c0,0.3,0.1,0.5,0.3,0.6c0.2,0.1,0.5,0.1,0.7,0c0.2-0.1,0.3-0.4,0.3-0.6v-2.8h2.8
			c0.3,0,0.5-0.1,0.6-0.3c0.1-0.2,0.1-0.5,0-0.7c-0.1-0.2-0.4-0.3-0.6-0.3H999z M1007.8,740c-0.4,0-0.7,0.3-0.7,0.7
			c0,0.4,0.3,0.7,0.7,0.7c0,0,0,0,0,0h2.8v2.8c0,0.4,0.3,0.7,0.6,0.7c0,0,0,0,0.1,0c0.4,0,0.7-0.3,0.7-0.7V740H1007.8z M999.7,748.1
			c-0.4,0-0.7,0.3-0.7,0.7v4.2h4.2c0,0,0,0,0.1,0c0.4,0,0.7-0.4,0.6-0.7c0-0.4-0.3-0.7-0.7-0.7h-2.8v-2.8c0-0.2-0.1-0.4-0.2-0.5
			C1000.1,748.2,999.9,748.1,999.7,748.1z M1011.3,748.1c-0.4,0-0.7,0.3-0.7,0.7v2.8h-2.8c-0.3,0-0.5,0.1-0.6,0.3
			c-0.1,0.2-0.1,0.5,0,0.7c0.1,0.2,0.4,0.3,0.6,0.3h4.2v-4.2c0-0.2-0.1-0.4-0.2-0.5C1011.7,748.2,1011.5,748.1,1011.3,748.1z"/>
	</g>
</g>
</svg>
